<?xml version="1.0" encoding="UTF-8" standalone="no"?>
<!DOCTYPE svg PUBLIC "-//W3C//DTD SVG 1.1//EN" "http://www.w3.org/Graphics/SVG/1.1/DTD/svg11.dtd">
<svg width="100%" height="100%" viewBox="0 0 128 128" version="1.1" xmlns="http://www.w3.org/2000/svg" xmlns:xlink="http://www.w3.org/1999/xlink" xml:space="preserve" xmlns:serif="http://www.serif.com/" style="fill-rule:evenodd;clip-rule:evenodd;stroke-linecap:round;stroke-linejoin:round;stroke-miterlimit:1.5;">
    <g transform="matrix(1.26825,0,0,1.08264,-17.4,-18.5971)">
        <path d="M112.951,40.93L112.951,80.951C112.951,91.995 105.297,100.961 95.869,100.961L32.627,100.961C23.199,100.961 15.545,91.995 15.545,80.951L15.545,40.93C15.545,29.886 23.199,20.92 32.627,20.92L95.869,20.92C105.297,20.92 112.951,29.886 112.951,40.93Z" style="fill:white;stroke:black;stroke-width:0.84px;"/>
    </g>
    <g transform="matrix(-1,-1.249e-16,1.249e-16,-1,124.529,210.053)">
        <path d="M62.346,95.835L73.261,114.026L51.432,114.026L62.346,95.835Z" style="fill:white;"/>
        <path d="M73.348,114.17C72.759,116.537 72.939,115.512 73.2,114.133C73.072,114.101 72.935,114.066 72.788,114.029L73.22,114.029C73.221,114.027 73.221,114.025 73.221,114.023C73.155,114.023 72.999,114.023 72.767,114.023C72.731,114.014 72.696,114.005 72.66,113.996C72.633,113.989 72.629,113.947 72.613,113.92C72.581,113.868 72.546,113.812 72.509,113.75C72.745,113.824 72.991,113.9 73.229,113.974C73.23,113.975 73.23,113.975 73.23,113.975C73.277,113.729 73.325,113.476 73.372,113.232C73.408,113.295 73.442,113.352 73.472,113.404C73.488,113.431 73.524,113.454 73.517,113.481C73.469,113.677 73.425,113.858 73.384,114.023C74.724,114.441 75.713,114.765 73.348,114.17ZM73.265,113.05C73.839,110.725 73.639,111.828 73.372,113.232C73.339,113.175 73.303,113.114 73.265,113.05ZM73.265,113.05C73.214,113.255 73.158,113.487 73.094,113.748C72.834,113.681 72.603,113.622 72.398,113.57C72.219,113.28 71.991,112.909 71.726,112.473C70.764,110.888 69.3,108.445 67.791,105.927C65.578,102.233 63.276,98.373 62.346,96.811C60.779,99.437 55.333,108.559 52.965,112.472C52.663,112.971 52.41,113.384 52.223,113.689C52.001,113.745 51.77,113.802 51.53,113.862C51.47,113.622 51.412,113.391 51.356,113.169C51.537,112.86 51.783,112.442 52.081,111.941C54.828,107.324 61.918,95.577 61.918,95.577C62.008,95.427 62.171,95.335 62.346,95.335C62.522,95.335 62.685,95.427 62.775,95.577C62.775,95.577 65.82,100.613 68.689,105.388C70.201,107.904 71.667,110.346 72.613,111.941C72.873,112.38 73.093,112.755 73.265,113.05ZM51.238,113.371C50.216,108.948 49.282,104.893 51.356,113.169C51.313,113.243 51.274,113.31 51.238,113.371ZM51.238,113.371C51.292,113.606 51.347,113.842 51.401,114.077C51.462,114.06 51.523,114.044 51.584,114.028L52.015,114.028C51.998,114.054 51.983,114.079 51.97,114.101C51.967,114.106 51.966,114.114 51.961,114.116C51.782,114.16 51.609,114.203 51.44,114.245C52.462,118.667 53.381,122.671 51.275,114.287C42.886,116.374 46.852,115.301 51.234,114.122C51.191,113.953 51.148,113.78 51.103,113.601C51.102,113.596 51.109,113.592 51.112,113.587C51.146,113.528 51.188,113.456 51.238,113.371ZM72.788,114.029L52.015,114.028C52.016,114.026 52.016,114.025 52.017,114.024C55.127,114.024 69.878,114.023 72.767,114.023C72.774,114.025 72.781,114.027 72.788,114.029ZM73.094,113.748C73.103,113.75 73.104,113.763 73.108,113.771C73.103,113.763 73.092,113.757 73.094,113.748ZM51.584,114.028L51.432,114.028C51.432,114.028 51.408,113.893 51.53,113.862C51.555,113.963 51.471,114.011 51.441,114.024C51.441,114.024 51.495,114.024 51.598,114.024C51.593,114.025 51.589,114.026 51.584,114.028ZM52.1,113.889C52.137,113.828 52.178,113.762 52.223,113.689C60.501,111.625 56.484,112.709 52.1,113.889ZM52.1,113.889C52.07,113.938 52.042,113.983 52.017,114.024C51.837,114.024 51.696,114.024 51.598,114.024C51.766,113.979 51.933,113.934 52.1,113.889ZM72.509,113.75C71.144,113.325 70.077,112.983 72.398,113.57C72.437,113.634 72.474,113.694 72.509,113.75Z"/>
    </g>
</svg>
