<?xml version="1.0" encoding="UTF-8" standalone="no"?>
<!DOCTYPE svg PUBLIC "-//W3C//DTD SVG 1.1//EN" "http://www.w3.org/Graphics/SVG/1.1/DTD/svg11.dtd">
<svg width="100%" height="100%" viewBox="0 0 256 128" version="1.1" xmlns="http://www.w3.org/2000/svg" xmlns:xlink="http://www.w3.org/1999/xlink" xml:space="preserve" xmlns:serif="http://www.serif.com/" style="fill-rule:evenodd;clip-rule:evenodd;stroke-linejoin:round;stroke-miterlimit:2;">
    <g transform="matrix(1,0,0,1,-37.5921,2.81067)">
        <g transform="matrix(52.1385,0,0,52.1385,48.0939,52.0213)">
            <path d="M0.708,-0.358C0.708,-0.304 0.7,-0.256 0.683,-0.212C0.666,-0.168 0.642,-0.13 0.611,-0.099C0.58,-0.067 0.542,-0.043 0.499,-0.026C0.456,-0.009 0.408,-0 0.355,-0L0.087,-0L0.087,-0.717L0.355,-0.717C0.408,-0.717 0.456,-0.708 0.499,-0.691C0.542,-0.674 0.58,-0.649 0.611,-0.618C0.642,-0.586 0.666,-0.549 0.683,-0.504C0.7,-0.461 0.708,-0.412 0.708,-0.358ZM0.609,-0.358C0.609,-0.402 0.603,-0.441 0.591,-0.476C0.579,-0.511 0.562,-0.54 0.54,-0.564C0.518,-0.588 0.491,-0.606 0.46,-0.619C0.428,-0.632 0.393,-0.638 0.355,-0.638L0.185,-0.638L0.185,-0.079L0.355,-0.079C0.393,-0.079 0.428,-0.085 0.46,-0.098C0.491,-0.11 0.518,-0.128 0.54,-0.152C0.562,-0.176 0.579,-0.205 0.591,-0.24C0.603,-0.275 0.609,-0.314 0.609,-0.358Z" style="fill:rgb(13,121,242);fill-rule:nonzero;"/>
        </g>
        <g transform="matrix(52.1385,0,0,52.1385,87.3542,52.0213)">
            <path d="M0.278,-0.515C0.315,-0.515 0.348,-0.508 0.378,-0.496C0.408,-0.484 0.433,-0.466 0.454,-0.444C0.475,-0.421 0.491,-0.393 0.502,-0.361C0.513,-0.329 0.519,-0.293 0.519,-0.254C0.519,-0.214 0.513,-0.178 0.502,-0.146C0.491,-0.114 0.475,-0.086 0.454,-0.064C0.433,-0.041 0.408,-0.023 0.378,-0.011C0.348,0.001 0.315,0.007 0.278,0.007C0.241,0.007 0.208,0.001 0.178,-0.011C0.148,-0.023 0.123,-0.041 0.102,-0.064C0.081,-0.086 0.064,-0.114 0.053,-0.146C0.042,-0.178 0.036,-0.214 0.036,-0.254C0.036,-0.293 0.042,-0.329 0.053,-0.361C0.064,-0.393 0.081,-0.421 0.102,-0.444C0.123,-0.466 0.148,-0.484 0.178,-0.496C0.208,-0.508 0.241,-0.515 0.278,-0.515ZM0.278,-0.063C0.328,-0.063 0.365,-0.079 0.39,-0.113C0.415,-0.146 0.427,-0.193 0.427,-0.253C0.427,-0.313 0.415,-0.36 0.39,-0.394C0.365,-0.428 0.328,-0.445 0.278,-0.445C0.253,-0.445 0.231,-0.44 0.212,-0.432C0.193,-0.423 0.178,-0.41 0.165,-0.394C0.153,-0.378 0.143,-0.358 0.137,-0.334C0.131,-0.31 0.128,-0.283 0.128,-0.253C0.128,-0.223 0.131,-0.196 0.137,-0.172C0.143,-0.149 0.153,-0.129 0.165,-0.113C0.178,-0.097 0.193,-0.084 0.212,-0.076C0.231,-0.067 0.253,-0.063 0.278,-0.063Z" style="fill:rgb(13,121,242);fill-rule:nonzero;"/>
        </g>
        <g transform="matrix(52.1385,0,0,52.1385,116.343,52.0213)">
            <path d="M0.007,-0.506L0.077,-0.506C0.084,-0.506 0.09,-0.505 0.095,-0.501C0.1,-0.497 0.103,-0.493 0.105,-0.488L0.202,-0.162C0.204,-0.15 0.207,-0.138 0.209,-0.127C0.211,-0.116 0.213,-0.105 0.215,-0.094C0.218,-0.105 0.221,-0.116 0.224,-0.127C0.227,-0.138 0.231,-0.15 0.234,-0.162L0.342,-0.49C0.343,-0.495 0.346,-0.499 0.35,-0.502C0.354,-0.506 0.36,-0.507 0.366,-0.507L0.405,-0.507C0.411,-0.507 0.417,-0.506 0.421,-0.502C0.425,-0.499 0.428,-0.495 0.43,-0.49L0.535,-0.162C0.538,-0.15 0.541,-0.139 0.544,-0.128C0.547,-0.116 0.55,-0.105 0.553,-0.094C0.554,-0.105 0.556,-0.117 0.559,-0.129C0.562,-0.141 0.565,-0.152 0.568,-0.162L0.667,-0.488C0.668,-0.493 0.671,-0.498 0.676,-0.501C0.681,-0.505 0.686,-0.506 0.693,-0.506L0.759,-0.506L0.596,-0L0.525,-0C0.516,-0 0.51,-0.006 0.507,-0.017L0.395,-0.361C0.392,-0.368 0.39,-0.376 0.389,-0.384C0.387,-0.392 0.385,-0.399 0.384,-0.407C0.382,-0.399 0.38,-0.392 0.379,-0.384C0.377,-0.376 0.375,-0.368 0.372,-0.36L0.259,-0.017C0.255,-0.006 0.248,-0 0.238,-0L0.171,-0L0.007,-0.506Z" style="fill:rgb(13,121,242);fill-rule:nonzero;"/>
        </g>
        <g transform="matrix(52.1385,0,0,52.1385,156.281,52.0213)">
            <path d="M0.073,-0L0.073,-0.506L0.126,-0.506C0.139,-0.506 0.147,-0.5 0.15,-0.488L0.157,-0.433C0.179,-0.457 0.204,-0.477 0.231,-0.492C0.258,-0.507 0.289,-0.515 0.325,-0.515C0.353,-0.515 0.377,-0.51 0.398,-0.501C0.419,-0.492 0.437,-0.479 0.451,-0.462C0.465,-0.445 0.476,-0.425 0.484,-0.401C0.491,-0.377 0.495,-0.351 0.495,-0.323L0.495,-0L0.406,-0L0.406,-0.323C0.406,-0.361 0.397,-0.391 0.379,-0.412C0.362,-0.433 0.335,-0.444 0.299,-0.444C0.273,-0.444 0.248,-0.437 0.225,-0.425C0.202,-0.412 0.181,-0.395 0.162,-0.373L0.162,-0L0.073,-0Z" style="fill:rgb(13,121,242);fill-rule:nonzero;"/>
        </g>
        <g transform="matrix(52.1385,0,0,52.1385,185.27,52.0213)">
            <rect x="0.083" y="-0.737" width="0.089" height="0.737" style="fill:rgb(13,121,242);fill-rule:nonzero;"/>
        </g>
        <g transform="matrix(52.1385,0,0,52.1385,198.618,52.0213)">
            <path d="M0.278,-0.515C0.315,-0.515 0.348,-0.508 0.378,-0.496C0.408,-0.484 0.433,-0.466 0.454,-0.444C0.475,-0.421 0.491,-0.393 0.502,-0.361C0.513,-0.329 0.519,-0.293 0.519,-0.254C0.519,-0.214 0.513,-0.178 0.502,-0.146C0.491,-0.114 0.475,-0.086 0.454,-0.064C0.433,-0.041 0.408,-0.023 0.378,-0.011C0.348,0.001 0.315,0.007 0.278,0.007C0.241,0.007 0.208,0.001 0.178,-0.011C0.148,-0.023 0.123,-0.041 0.102,-0.064C0.081,-0.086 0.064,-0.114 0.053,-0.146C0.042,-0.178 0.036,-0.214 0.036,-0.254C0.036,-0.293 0.042,-0.329 0.053,-0.361C0.064,-0.393 0.081,-0.421 0.102,-0.444C0.123,-0.466 0.148,-0.484 0.178,-0.496C0.208,-0.508 0.241,-0.515 0.278,-0.515ZM0.278,-0.063C0.328,-0.063 0.365,-0.079 0.39,-0.113C0.415,-0.146 0.427,-0.193 0.427,-0.253C0.427,-0.313 0.415,-0.36 0.39,-0.394C0.365,-0.428 0.328,-0.445 0.278,-0.445C0.253,-0.445 0.231,-0.44 0.212,-0.432C0.193,-0.423 0.178,-0.41 0.165,-0.394C0.153,-0.378 0.143,-0.358 0.137,-0.334C0.131,-0.31 0.128,-0.283 0.128,-0.253C0.128,-0.223 0.131,-0.196 0.137,-0.172C0.143,-0.149 0.153,-0.129 0.165,-0.113C0.178,-0.097 0.193,-0.084 0.212,-0.076C0.231,-0.067 0.253,-0.063 0.278,-0.063Z" style="fill:rgb(13,121,242);fill-rule:nonzero;"/>
        </g>
        <g transform="matrix(52.1385,0,0,52.1385,227.607,52.0213)">
            <path d="M0.445,-0L0.406,-0C0.397,-0 0.39,-0.001 0.385,-0.004C0.379,-0.007 0.376,-0.012 0.374,-0.021L0.364,-0.068C0.351,-0.056 0.338,-0.045 0.325,-0.036C0.312,-0.026 0.299,-0.018 0.285,-0.012C0.271,-0.005 0.256,-0 0.24,0.003C0.224,0.006 0.207,0.008 0.188,0.008C0.168,0.008 0.149,0.005 0.132,-0C0.115,-0.006 0.1,-0.014 0.087,-0.025C0.075,-0.036 0.065,-0.05 0.057,-0.067C0.05,-0.084 0.046,-0.104 0.046,-0.127C0.046,-0.147 0.051,-0.166 0.063,-0.185C0.074,-0.203 0.091,-0.22 0.116,-0.234C0.14,-0.249 0.172,-0.261 0.212,-0.27C0.252,-0.279 0.3,-0.283 0.358,-0.283L0.358,-0.323C0.358,-0.363 0.349,-0.393 0.332,-0.413C0.315,-0.433 0.291,-0.444 0.258,-0.444C0.236,-0.444 0.218,-0.441 0.203,-0.435C0.188,-0.43 0.175,-0.424 0.164,-0.417C0.153,-0.41 0.144,-0.404 0.136,-0.398C0.128,-0.393 0.121,-0.39 0.113,-0.39C0.107,-0.39 0.102,-0.392 0.097,-0.395C0.093,-0.398 0.089,-0.402 0.086,-0.406L0.07,-0.435C0.099,-0.462 0.129,-0.482 0.161,-0.496C0.193,-0.509 0.229,-0.516 0.269,-0.516C0.297,-0.516 0.322,-0.511 0.344,-0.501C0.366,-0.492 0.385,-0.479 0.4,-0.463C0.414,-0.446 0.426,-0.426 0.434,-0.402C0.441,-0.378 0.445,-0.352 0.445,-0.324L0.445,-0ZM0.214,-0.055C0.23,-0.055 0.244,-0.056 0.257,-0.059C0.27,-0.062 0.282,-0.067 0.294,-0.073C0.305,-0.079 0.316,-0.086 0.327,-0.094C0.337,-0.102 0.347,-0.112 0.358,-0.123L0.358,-0.227C0.317,-0.227 0.282,-0.224 0.253,-0.219C0.224,-0.214 0.201,-0.207 0.183,-0.199C0.165,-0.19 0.152,-0.181 0.144,-0.169C0.136,-0.158 0.132,-0.145 0.132,-0.131C0.132,-0.118 0.134,-0.106 0.138,-0.096C0.142,-0.087 0.148,-0.079 0.156,-0.072C0.163,-0.066 0.172,-0.062 0.182,-0.059C0.192,-0.056 0.202,-0.055 0.214,-0.055Z" style="fill:rgb(13,121,242);fill-rule:nonzero;"/>
        </g>
        <g transform="matrix(52.1385,0,0,52.1385,254.041,52.0213)">
            <path d="M0.43,-0C0.417,-0 0.409,-0.006 0.406,-0.019L0.398,-0.08C0.376,-0.054 0.351,-0.033 0.323,-0.017C0.295,-0.001 0.264,0.007 0.228,0.007C0.199,0.007 0.172,0.001 0.149,-0.01C0.125,-0.021 0.105,-0.037 0.088,-0.059C0.071,-0.081 0.059,-0.108 0.05,-0.14C0.041,-0.172 0.036,-0.21 0.036,-0.252C0.036,-0.289 0.041,-0.324 0.051,-0.356C0.061,-0.388 0.075,-0.416 0.094,-0.44C0.113,-0.463 0.136,-0.482 0.163,-0.495C0.19,-0.509 0.221,-0.516 0.255,-0.516C0.286,-0.516 0.313,-0.51 0.335,-0.5C0.357,-0.489 0.376,-0.474 0.394,-0.456L0.394,-0.737L0.483,-0.737L0.483,-0L0.43,-0ZM0.257,-0.065C0.286,-0.065 0.311,-0.072 0.333,-0.085C0.355,-0.098 0.375,-0.117 0.394,-0.141L0.394,-0.387C0.377,-0.408 0.359,-0.424 0.34,-0.433C0.32,-0.442 0.299,-0.446 0.275,-0.446C0.228,-0.446 0.191,-0.429 0.166,-0.396C0.141,-0.362 0.128,-0.314 0.128,-0.252C0.128,-0.219 0.131,-0.19 0.137,-0.167C0.142,-0.143 0.151,-0.124 0.162,-0.109C0.172,-0.094 0.186,-0.083 0.202,-0.076C0.218,-0.069 0.236,-0.065 0.257,-0.065Z" style="fill:rgb(13,121,242);fill-rule:nonzero;"/>
        </g>
        <g transform="matrix(48,0,0,48,47.0561,100.021)">
            <path d="M0.227,0.008C0.187,0.008 0.156,-0.003 0.134,-0.025C0.113,-0.048 0.102,-0.08 0.102,-0.122L0.102,-0.432L0.041,-0.432C0.036,-0.432 0.031,-0.434 0.028,-0.437C0.024,-0.44 0.022,-0.445 0.022,-0.452L0.022,-0.487L0.105,-0.498L0.126,-0.654C0.126,-0.659 0.128,-0.663 0.132,-0.666C0.136,-0.669 0.14,-0.671 0.146,-0.671L0.191,-0.671L0.191,-0.497L0.336,-0.497L0.336,-0.432L0.191,-0.432L0.191,-0.128C0.191,-0.107 0.196,-0.091 0.206,-0.081C0.217,-0.07 0.23,-0.065 0.247,-0.065C0.256,-0.065 0.264,-0.066 0.271,-0.069C0.278,-0.071 0.283,-0.074 0.289,-0.077C0.294,-0.08 0.298,-0.083 0.301,-0.085C0.305,-0.088 0.308,-0.089 0.311,-0.089C0.315,-0.089 0.319,-0.086 0.323,-0.081L0.349,-0.038C0.334,-0.024 0.315,-0.012 0.294,-0.004C0.272,0.004 0.25,0.008 0.227,0.008Z" style="fill:rgb(13,121,242);fill-rule:nonzero;"/>
        </g>
        <g transform="matrix(48,0,0,48,64.9601,100.021)">
            <path d="M0.073,-0L0.073,-0.737L0.162,-0.737L0.162,-0.439C0.184,-0.462 0.208,-0.48 0.234,-0.494C0.26,-0.508 0.291,-0.515 0.325,-0.515C0.353,-0.515 0.377,-0.51 0.398,-0.501C0.419,-0.492 0.437,-0.479 0.451,-0.462C0.465,-0.445 0.476,-0.425 0.484,-0.401C0.491,-0.377 0.495,-0.351 0.495,-0.323L0.495,-0L0.406,-0L0.406,-0.323C0.406,-0.361 0.397,-0.391 0.379,-0.412C0.362,-0.433 0.335,-0.444 0.299,-0.444C0.273,-0.444 0.248,-0.437 0.225,-0.425C0.202,-0.412 0.181,-0.395 0.162,-0.373L0.162,-0L0.073,-0Z" style="fill:rgb(13,121,242);fill-rule:nonzero;"/>
        </g>
        <g transform="matrix(48,0,0,48,91.6481,100.021)">
            <path d="M0.172,-0.506L0.172,-0L0.083,-0L0.083,-0.506L0.172,-0.506ZM0.192,-0.666C0.192,-0.657 0.19,-0.649 0.187,-0.641C0.183,-0.634 0.179,-0.627 0.173,-0.621C0.167,-0.615 0.16,-0.611 0.153,-0.608C0.145,-0.604 0.137,-0.603 0.128,-0.603C0.119,-0.603 0.111,-0.604 0.104,-0.608C0.096,-0.611 0.09,-0.615 0.084,-0.621C0.078,-0.627 0.073,-0.634 0.07,-0.641C0.067,-0.649 0.065,-0.657 0.065,-0.666C0.065,-0.674 0.067,-0.682 0.07,-0.69C0.073,-0.698 0.078,-0.705 0.084,-0.711C0.09,-0.717 0.096,-0.721 0.104,-0.725C0.111,-0.728 0.119,-0.73 0.128,-0.73C0.137,-0.73 0.145,-0.728 0.153,-0.725C0.16,-0.721 0.167,-0.717 0.173,-0.711C0.179,-0.705 0.183,-0.698 0.187,-0.69C0.19,-0.682 0.192,-0.674 0.192,-0.666Z" style="fill:rgb(13,121,242);fill-rule:nonzero;"/>
        </g>
        <g transform="matrix(48,0,0,48,103.936,100.021)">
            <path d="M0.363,-0.423C0.359,-0.416 0.353,-0.412 0.344,-0.412C0.34,-0.412 0.334,-0.414 0.328,-0.418C0.321,-0.421 0.313,-0.425 0.304,-0.43C0.295,-0.434 0.284,-0.438 0.272,-0.442C0.259,-0.446 0.244,-0.448 0.227,-0.448C0.212,-0.448 0.198,-0.446 0.186,-0.442C0.174,-0.438 0.164,-0.433 0.155,-0.427C0.147,-0.42 0.14,-0.412 0.136,-0.403C0.131,-0.394 0.129,-0.385 0.129,-0.375C0.129,-0.362 0.133,-0.351 0.14,-0.342C0.148,-0.333 0.158,-0.326 0.17,-0.32C0.182,-0.313 0.196,-0.308 0.212,-0.303C0.228,-0.298 0.244,-0.293 0.26,-0.287C0.277,-0.282 0.293,-0.276 0.309,-0.269C0.324,-0.262 0.338,-0.254 0.35,-0.244C0.363,-0.234 0.373,-0.222 0.38,-0.207C0.388,-0.193 0.392,-0.175 0.392,-0.155C0.392,-0.132 0.387,-0.11 0.379,-0.09C0.371,-0.07 0.358,-0.053 0.342,-0.039C0.326,-0.024 0.306,-0.013 0.282,-0.005C0.258,0.004 0.231,0.008 0.2,0.008C0.165,0.008 0.133,0.002 0.104,-0.009C0.075,-0.021 0.051,-0.035 0.031,-0.054L0.052,-0.087C0.055,-0.092 0.058,-0.095 0.062,-0.098C0.065,-0.1 0.07,-0.101 0.076,-0.101C0.082,-0.101 0.088,-0.099 0.095,-0.094C0.102,-0.089 0.11,-0.084 0.119,-0.079C0.129,-0.073 0.14,-0.068 0.154,-0.063C0.167,-0.058 0.184,-0.056 0.204,-0.056C0.222,-0.056 0.237,-0.058 0.25,-0.063C0.263,-0.067 0.274,-0.073 0.282,-0.081C0.291,-0.089 0.298,-0.098 0.302,-0.108C0.306,-0.117 0.308,-0.128 0.308,-0.14C0.308,-0.154 0.304,-0.165 0.297,-0.174C0.289,-0.183 0.279,-0.191 0.267,-0.198C0.255,-0.204 0.241,-0.21 0.225,-0.215C0.209,-0.22 0.193,-0.225 0.176,-0.23C0.16,-0.235 0.144,-0.241 0.128,-0.248C0.112,-0.255 0.098,-0.264 0.086,-0.274C0.073,-0.284 0.063,-0.297 0.056,-0.312C0.048,-0.327 0.045,-0.346 0.045,-0.368C0.045,-0.387 0.049,-0.405 0.057,-0.423C0.065,-0.441 0.076,-0.457 0.092,-0.47C0.107,-0.484 0.126,-0.495 0.148,-0.502C0.17,-0.51 0.196,-0.515 0.225,-0.515C0.258,-0.515 0.288,-0.509 0.314,-0.499C0.341,-0.488 0.364,-0.474 0.383,-0.456L0.363,-0.423Z" style="fill:rgb(13,121,242);fill-rule:nonzero;"/>
        </g>
        <g transform="matrix(48,0,0,48,134.032,100.021)">
            <path d="M0.073,0.172L0.073,-0.506L0.126,-0.506C0.139,-0.506 0.147,-0.5 0.15,-0.488L0.158,-0.428C0.179,-0.454 0.204,-0.475 0.232,-0.492C0.26,-0.507 0.292,-0.516 0.328,-0.516C0.357,-0.516 0.383,-0.51 0.407,-0.499C0.431,-0.488 0.451,-0.471 0.468,-0.449C0.484,-0.427 0.497,-0.4 0.506,-0.368C0.515,-0.336 0.52,-0.299 0.52,-0.257C0.52,-0.219 0.515,-0.184 0.504,-0.152C0.495,-0.12 0.48,-0.092 0.462,-0.069C0.443,-0.045 0.42,-0.027 0.393,-0.013C0.366,0 0.335,0.007 0.301,0.007C0.27,0.007 0.243,0.002 0.221,-0.009C0.199,-0.019 0.179,-0.034 0.162,-0.053L0.162,0.172L0.073,0.172ZM0.299,-0.444C0.27,-0.444 0.244,-0.437 0.222,-0.424C0.2,-0.41 0.18,-0.391 0.162,-0.367L0.162,-0.122C0.178,-0.1 0.196,-0.085 0.216,-0.076C0.235,-0.067 0.257,-0.062 0.281,-0.062C0.328,-0.062 0.364,-0.079 0.39,-0.113C0.415,-0.146 0.428,-0.194 0.428,-0.257C0.428,-0.29 0.425,-0.318 0.419,-0.342C0.413,-0.365 0.405,-0.385 0.394,-0.4C0.383,-0.415 0.369,-0.426 0.353,-0.433C0.337,-0.44 0.319,-0.444 0.299,-0.444Z" style="fill:rgb(13,121,242);fill-rule:nonzero;"/>
        </g>
        <g transform="matrix(48,0,0,48,160.528,100.021)">
            <path d="M0.073,-0L0.073,-0.506L0.124,-0.506C0.134,-0.506 0.14,-0.505 0.144,-0.501C0.148,-0.497 0.15,-0.491 0.152,-0.482L0.158,-0.403C0.175,-0.438 0.196,-0.466 0.222,-0.486C0.247,-0.506 0.277,-0.516 0.312,-0.516C0.326,-0.516 0.338,-0.514 0.349,-0.511C0.361,-0.508 0.371,-0.503 0.381,-0.498L0.37,-0.431C0.367,-0.423 0.362,-0.419 0.354,-0.419C0.349,-0.419 0.342,-0.42 0.333,-0.423C0.323,-0.426 0.309,-0.428 0.292,-0.428C0.261,-0.428 0.235,-0.419 0.214,-0.401C0.193,-0.383 0.176,-0.357 0.162,-0.323L0.162,-0L0.073,-0Z" style="fill:rgb(13,121,242);fill-rule:nonzero;"/>
        </g>
        <g transform="matrix(48,0,0,48,179.872,100.021)">
            <path d="M0.278,-0.515C0.315,-0.515 0.348,-0.508 0.378,-0.496C0.408,-0.484 0.433,-0.466 0.454,-0.444C0.475,-0.421 0.491,-0.393 0.502,-0.361C0.513,-0.329 0.519,-0.293 0.519,-0.254C0.519,-0.214 0.513,-0.178 0.502,-0.146C0.491,-0.114 0.475,-0.086 0.454,-0.064C0.433,-0.041 0.408,-0.023 0.378,-0.011C0.348,0.001 0.315,0.007 0.278,0.007C0.241,0.007 0.208,0.001 0.178,-0.011C0.148,-0.023 0.123,-0.041 0.102,-0.064C0.081,-0.086 0.064,-0.114 0.053,-0.146C0.042,-0.178 0.036,-0.214 0.036,-0.254C0.036,-0.293 0.042,-0.329 0.053,-0.361C0.064,-0.393 0.081,-0.421 0.102,-0.444C0.123,-0.466 0.148,-0.484 0.178,-0.496C0.208,-0.508 0.241,-0.515 0.278,-0.515ZM0.278,-0.063C0.328,-0.063 0.365,-0.079 0.39,-0.113C0.415,-0.146 0.427,-0.193 0.427,-0.253C0.427,-0.313 0.415,-0.36 0.39,-0.394C0.365,-0.428 0.328,-0.445 0.278,-0.445C0.253,-0.445 0.231,-0.44 0.212,-0.432C0.193,-0.423 0.178,-0.41 0.165,-0.394C0.153,-0.378 0.143,-0.358 0.137,-0.334C0.131,-0.31 0.128,-0.283 0.128,-0.253C0.128,-0.223 0.131,-0.196 0.137,-0.172C0.143,-0.149 0.153,-0.129 0.165,-0.113C0.178,-0.097 0.193,-0.084 0.212,-0.076C0.231,-0.067 0.253,-0.063 0.278,-0.063Z" style="fill:rgb(13,121,242);fill-rule:nonzero;"/>
        </g>
        <g transform="matrix(48,0,0,48,206.56,100.021)">
            <path d="M0.172,-0.507L0.172,0.037C0.172,0.058 0.169,0.077 0.164,0.094C0.159,0.112 0.15,0.127 0.139,0.14C0.127,0.153 0.112,0.163 0.094,0.171C0.076,0.178 0.054,0.182 0.029,0.182C0.018,0.182 0.008,0.181 -0.001,0.179C-0.01,0.178 -0.019,0.175 -0.028,0.172L-0.024,0.124C-0.023,0.12 -0.022,0.117 -0.019,0.116C-0.017,0.115 -0.013,0.114 -0.009,0.114C-0.006,0.114 0.007,0.114 0.011,0.114C0.037,0.114 0.056,0.108 0.067,0.096C0.078,0.084 0.083,0.064 0.083,0.037L0.083,-0.507L0.172,-0.507ZM0.192,-0.666C0.192,-0.657 0.19,-0.649 0.187,-0.641C0.183,-0.634 0.179,-0.627 0.173,-0.621C0.167,-0.615 0.16,-0.611 0.153,-0.608C0.145,-0.604 0.137,-0.603 0.128,-0.603C0.119,-0.603 0.111,-0.604 0.104,-0.608C0.096,-0.611 0.09,-0.615 0.084,-0.621C0.078,-0.627 0.073,-0.634 0.07,-0.641C0.067,-0.649 0.065,-0.657 0.065,-0.666C0.065,-0.674 0.067,-0.682 0.07,-0.69C0.073,-0.698 0.078,-0.705 0.084,-0.711C0.09,-0.717 0.096,-0.721 0.104,-0.725C0.111,-0.728 0.119,-0.73 0.128,-0.73C0.137,-0.73 0.145,-0.728 0.153,-0.725C0.16,-0.721 0.167,-0.717 0.173,-0.711C0.179,-0.705 0.183,-0.698 0.187,-0.69C0.19,-0.682 0.192,-0.674 0.192,-0.666Z" style="fill:rgb(13,121,242);fill-rule:nonzero;"/>
        </g>
        <g transform="matrix(48,0,0,48,218.752,100.021)">
            <path d="M0.274,-0.515C0.304,-0.515 0.332,-0.509 0.358,-0.499C0.383,-0.489 0.405,-0.474 0.424,-0.455C0.443,-0.436 0.457,-0.412 0.468,-0.384C0.478,-0.356 0.484,-0.324 0.484,-0.288C0.484,-0.274 0.482,-0.265 0.479,-0.26C0.476,-0.255 0.47,-0.253 0.462,-0.253L0.125,-0.253C0.126,-0.221 0.13,-0.193 0.138,-0.17C0.146,-0.146 0.157,-0.126 0.171,-0.11C0.185,-0.094 0.202,-0.083 0.221,-0.075C0.24,-0.067 0.262,-0.063 0.286,-0.063C0.308,-0.063 0.328,-0.066 0.344,-0.071C0.36,-0.076 0.374,-0.082 0.386,-0.087C0.397,-0.094 0.407,-0.099 0.415,-0.104C0.423,-0.109 0.429,-0.112 0.435,-0.112C0.442,-0.112 0.448,-0.109 0.452,-0.103L0.477,-0.071C0.466,-0.058 0.453,-0.046 0.438,-0.036C0.422,-0.026 0.406,-0.018 0.388,-0.012C0.371,-0.006 0.353,-0.001 0.334,0.002C0.315,0.005 0.297,0.007 0.279,0.007C0.244,0.007 0.211,0.001 0.182,-0.011C0.152,-0.023 0.127,-0.04 0.105,-0.063C0.084,-0.086 0.067,-0.114 0.055,-0.148C0.043,-0.181 0.037,-0.22 0.037,-0.264C0.037,-0.299 0.042,-0.332 0.053,-0.363C0.064,-0.393 0.08,-0.42 0.1,-0.442C0.12,-0.465 0.145,-0.482 0.174,-0.495C0.204,-0.508 0.237,-0.515 0.274,-0.515ZM0.276,-0.449C0.233,-0.449 0.199,-0.437 0.174,-0.412C0.149,-0.387 0.134,-0.353 0.128,-0.309L0.404,-0.309C0.404,-0.329 0.401,-0.348 0.395,-0.365C0.389,-0.382 0.381,-0.397 0.37,-0.41C0.359,-0.422 0.346,-0.432 0.33,-0.439C0.314,-0.446 0.296,-0.449 0.276,-0.449Z" style="fill:rgb(13,121,242);fill-rule:nonzero;"/>
        </g>
        <g transform="matrix(48,0,0,48,243.904,100.021)">
            <path d="M0.419,-0.417C0.416,-0.413 0.413,-0.41 0.41,-0.408C0.408,-0.406 0.404,-0.405 0.399,-0.405C0.394,-0.405 0.389,-0.407 0.383,-0.411C0.377,-0.415 0.37,-0.42 0.361,-0.425C0.352,-0.43 0.341,-0.435 0.328,-0.439C0.315,-0.443 0.299,-0.445 0.281,-0.445C0.256,-0.445 0.234,-0.441 0.215,-0.432C0.196,-0.423 0.18,-0.41 0.167,-0.394C0.154,-0.377 0.145,-0.357 0.138,-0.333C0.132,-0.309 0.129,-0.283 0.129,-0.254C0.129,-0.223 0.132,-0.196 0.139,-0.172C0.146,-0.148 0.156,-0.128 0.169,-0.112C0.181,-0.096 0.197,-0.083 0.215,-0.075C0.233,-0.066 0.253,-0.062 0.276,-0.062C0.298,-0.062 0.316,-0.065 0.33,-0.07C0.344,-0.075 0.355,-0.081 0.365,-0.087C0.374,-0.093 0.382,-0.099 0.388,-0.104C0.394,-0.109 0.4,-0.112 0.406,-0.112C0.413,-0.112 0.419,-0.109 0.423,-0.103L0.448,-0.071C0.426,-0.044 0.398,-0.024 0.365,-0.012C0.332,0.001 0.297,0.007 0.261,0.007C0.229,0.007 0.199,0.001 0.172,-0.011C0.145,-0.022 0.122,-0.039 0.102,-0.061C0.082,-0.083 0.066,-0.111 0.054,-0.143C0.043,-0.175 0.037,-0.212 0.037,-0.254C0.037,-0.291 0.042,-0.326 0.053,-0.358C0.063,-0.39 0.079,-0.418 0.099,-0.441C0.119,-0.464 0.144,-0.482 0.173,-0.495C0.203,-0.508 0.237,-0.515 0.276,-0.515C0.311,-0.515 0.342,-0.509 0.37,-0.497C0.397,-0.486 0.421,-0.469 0.442,-0.449L0.419,-0.417Z" style="fill:rgb(13,121,242);fill-rule:nonzero;"/>
        </g>
        <g transform="matrix(48,0,0,48,266.32,100.021)">
            <path d="M0.227,0.008C0.187,0.008 0.156,-0.003 0.134,-0.025C0.113,-0.048 0.102,-0.08 0.102,-0.122L0.102,-0.432L0.041,-0.432C0.036,-0.432 0.031,-0.434 0.028,-0.437C0.024,-0.44 0.022,-0.445 0.022,-0.452L0.022,-0.487L0.105,-0.498L0.126,-0.654C0.126,-0.659 0.128,-0.663 0.132,-0.666C0.136,-0.669 0.14,-0.671 0.146,-0.671L0.191,-0.671L0.191,-0.497L0.336,-0.497L0.336,-0.432L0.191,-0.432L0.191,-0.128C0.191,-0.107 0.196,-0.091 0.206,-0.081C0.217,-0.07 0.23,-0.065 0.247,-0.065C0.256,-0.065 0.264,-0.066 0.271,-0.069C0.278,-0.071 0.283,-0.074 0.289,-0.077C0.294,-0.08 0.298,-0.083 0.301,-0.085C0.305,-0.088 0.308,-0.089 0.311,-0.089C0.315,-0.089 0.319,-0.086 0.323,-0.081L0.349,-0.038C0.334,-0.024 0.315,-0.012 0.294,-0.004C0.272,0.004 0.25,0.008 0.227,0.008Z" style="fill:rgb(13,121,242);fill-rule:nonzero;"/>
        </g>
    </g>
</svg>
